<svg width="172" height="43" viewBox="0 0 172 43" fill="none" xmlns="http://www.w3.org/2000/svg">
<path d="M56.9715 19.0009C56.5546 18.4917 56.0237 18.0876 55.4218 17.8215C54.7504 17.5348 54.0258 17.394 53.2958 17.4083C52.5386 17.4012 51.7886 17.5555 51.0956 17.861C50.4027 18.1664 49.7828 18.616 49.2773 19.1797C48.7603 19.7613 48.3599 20.4368 48.0978 21.1695C47.8088 21.9698 47.6648 22.8154 47.6727 23.6663C47.6626 24.5216 47.8066 25.3718 48.0978 26.176C48.361 26.9007 48.7563 27.5703 49.2635 28.1509C49.7478 28.7013 50.3414 29.1449 51.0064 29.4535C51.6808 29.7666 52.4161 29.9265 53.1595 29.9217C53.9704 29.9377 54.7723 29.749 55.491 29.3732C56.1674 29.0077 56.7425 28.4799 57.1644 27.8372L60.7301 30.4977C59.9429 31.6205 58.8601 32.5033 57.6018 33.0483C56.3746 33.5896 55.0483 33.8698 53.707 33.8712C52.2767 33.8859 50.8553 33.6439 49.5104 33.1569C48.276 32.7096 47.1464 32.0141 46.1913 31.1132C45.245 30.2045 44.5025 29.1052 44.013 27.888C43.4769 26.5452 43.2116 25.1097 43.2324 23.664C43.2116 22.2183 43.4769 20.7826 44.013 19.4397C44.5035 18.2232 45.2467 17.1247 46.1935 16.2169C47.1486 15.316 48.2783 14.6204 49.5127 14.1732C50.8576 13.6861 52.2789 13.4442 53.7093 13.4589C54.2839 13.4612 54.8573 13.5116 55.4235 13.6097C56.0231 13.7117 56.6112 13.8725 57.1793 14.0897C57.7656 14.3147 58.3228 14.6093 58.8387 14.9675C59.3783 15.3416 59.859 15.7942 60.265 16.3103L56.9715 19.0009ZM62.5944 20.0435H66.7087V33.3735H62.5944V20.0435ZM62.2655 15.8477C62.2609 15.5339 62.3205 15.2224 62.4408 14.9325C62.5611 14.6426 62.7395 14.3804 62.965 14.162C63.1832 13.9364 63.4454 13.7578 63.7353 13.6374C64.0253 13.517 64.3368 13.4572 64.6507 13.4617C64.9645 13.4571 65.276 13.5167 65.5659 13.637C65.8558 13.7573 66.1181 13.9357 66.3364 14.1612C66.562 14.3798 66.7405 14.6424 66.8607 14.9326C66.9809 15.2229 67.0403 15.5348 67.0353 15.8489C67.0399 16.1627 66.9803 16.4742 66.86 16.7641C66.7397 17.054 66.5613 17.3163 66.3358 17.5346C66.1174 17.7599 65.8551 17.9381 65.5652 18.0582C65.2753 18.1782 64.9639 18.2377 64.6501 18.2329C64.3363 18.2376 64.0248 18.1779 63.7349 18.0576C63.445 17.9373 63.1827 17.759 62.9644 17.5335C62.739 17.3151 62.5607 17.0528 62.4405 16.7629C62.3204 16.473 62.2608 16.1616 62.2655 15.8477ZM78.7513 23.3335H75.1295V27.778C75.1279 28.1122 75.1463 28.4461 75.1847 28.778C75.2129 29.0528 75.2972 29.3189 75.4324 29.5597C75.57 29.7873 75.7767 29.965 76.0224 30.0669C76.3587 30.1987 76.7186 30.2594 77.0795 30.2452C77.3688 30.2399 77.6574 30.217 77.9438 30.1766C78.2391 30.156 78.5212 30.0465 78.753 29.8623V33.2912C78.2922 33.4567 77.8134 33.5673 77.3267 33.6206C76.844 33.6748 76.3587 33.7023 75.873 33.7029C75.2264 33.7086 74.5816 33.635 73.953 33.4837C73.4005 33.3524 72.8788 33.1149 72.417 32.7843C71.9752 32.4606 71.6215 32.0313 71.3884 31.5357C71.1258 30.9498 70.9988 30.3122 71.017 29.6703V23.3346H68.3827V20.0432H71.0158V16.0935H75.1301V20.0432H78.7507L78.7513 23.3335ZM80.8895 20.0432H85.0038V33.3735H80.8895V20.0432ZM80.5601 15.8475C80.5554 15.5336 80.6151 15.2221 80.7354 14.9322C80.8557 14.6423 81.0341 14.3801 81.2596 14.1617C81.4779 13.9363 81.7401 13.7579 82.03 13.6376C82.3199 13.5173 82.6314 13.4576 82.9453 13.4623C83.2591 13.4576 83.5706 13.5173 83.8605 13.6376C84.1504 13.7579 84.4126 13.9363 84.631 14.1617C84.8565 14.3801 85.0349 14.6423 85.1551 14.9322C85.2754 15.2221 85.3351 15.5336 85.3304 15.8475C85.3351 16.1613 85.2754 16.4728 85.1551 16.7627C85.0349 17.0526 84.8565 17.3148 84.631 17.5332C84.4126 17.7587 84.1504 17.9371 83.8605 18.0573C83.5706 18.1776 83.2591 18.2373 82.9453 18.2326C82.6314 18.2373 82.3199 18.1776 82.03 18.0573C81.7401 17.9371 81.4779 17.7587 81.2596 17.5332C81.0341 17.3148 80.8558 17.0527 80.7356 16.7628C80.6154 16.4729 80.5555 16.1612 80.5601 15.8475ZM98.0875 18.6992C97.7198 18.2453 97.2294 17.9068 96.6747 17.7237C96.1348 17.5239 95.5647 17.4176 94.989 17.4095C94.6658 17.4108 94.3438 17.4476 94.0287 17.5192C93.7038 17.5908 93.39 17.7061 93.0961 17.862C92.8129 18.0089 92.5682 18.2203 92.3818 18.4792C92.1939 18.753 92.0982 19.0797 92.1087 19.4117C92.0957 19.6729 92.1492 19.9331 92.2641 20.1679C92.379 20.4028 92.5517 20.6046 92.7658 20.7546C93.2766 21.1004 93.8358 21.3684 94.4253 21.55C95.0919 21.7697 95.8096 21.9887 96.5784 22.2072C97.3342 22.4213 98.0583 22.7349 98.7316 23.1397C99.401 23.5454 99.968 24.0997 100.389 24.7597C100.865 25.5823 101.093 26.5249 101.046 27.474C101.068 28.45 100.862 29.4176 100.442 30.2992C100.059 31.0823 99.5011 31.7675 98.8124 32.3026C98.1005 32.8459 97.2902 33.2464 96.4261 33.482C95.4929 33.7418 94.5282 33.8711 93.5596 33.866C92.3647 33.8772 91.1768 33.6824 90.0481 33.29C88.9262 32.8795 87.8996 32.2448 87.031 31.4246L90.0747 28.0797C90.5088 28.661 91.0785 29.1271 91.7341 29.4375C92.3791 29.7523 93.0872 29.9164 93.805 29.9175C94.1609 29.9166 94.5156 29.8752 94.8621 29.794C95.2002 29.7202 95.5252 29.5957 95.8261 29.4249C96.0997 29.2694 96.3342 29.0537 96.5118 28.794C96.6891 28.526 96.78 28.2101 96.7724 27.8889C96.782 27.6203 96.7256 27.3534 96.608 27.1117C96.4905 26.87 96.3154 26.6609 96.0981 26.5026C95.5837 26.1305 95.0152 25.8396 94.4124 25.6403C93.7362 25.4026 93.0048 25.1645 92.2181 24.926C91.4503 24.6959 90.7134 24.3729 90.0238 23.9643C89.3512 23.5651 88.7754 23.0217 88.3381 22.3732C87.8567 21.5922 87.6226 20.6839 87.6664 19.7675C87.6454 18.8165 87.8573 17.8749 88.2835 17.0246C88.6817 16.2543 89.2433 15.5803 89.9293 15.0497C90.6384 14.5076 91.4427 14.1029 92.3007 13.8566C93.2005 13.591 94.134 13.4571 95.0721 13.4592C96.15 13.457 97.2223 13.6148 98.2538 13.9275C99.2809 14.2396 100.227 14.7733 101.025 15.4909L98.0875 18.6992ZM103.766 20.042H107.88V33.3735H103.766V20.042ZM103.436 15.8463C103.431 15.5325 103.491 15.221 103.611 14.9311C103.731 14.6412 103.91 14.379 104.135 14.1606C104.354 13.9351 104.616 13.7567 104.906 13.6364C105.196 13.5161 105.507 13.4565 105.821 13.4612C106.135 13.4565 106.446 13.5161 106.736 13.6364C107.026 13.7567 107.288 13.9351 107.507 14.1606C107.732 14.379 107.911 14.6412 108.031 14.9311C108.151 15.221 108.211 15.5325 108.206 15.8463C108.211 16.1602 108.151 16.4716 108.031 16.7616C107.911 17.0515 107.732 17.3137 107.507 17.532C107.288 17.7575 107.026 17.9359 106.736 18.0562C106.446 18.1765 106.135 18.2361 105.821 18.2315C105.507 18.2361 105.196 18.1765 104.906 18.0562C104.616 17.9359 104.354 17.7575 104.135 17.532C103.91 17.3138 103.732 17.0518 103.612 16.7622C103.491 16.4725 103.432 16.1613 103.436 15.8477L103.436 15.8463ZM124.83 32.2486C124.83 34.7717 124.195 36.6872 122.924 37.9952C121.653 39.3032 119.72 39.957 117.124 39.9566C115.942 39.9575 114.764 39.8242 113.613 39.5592C112.449 39.2885 111.362 38.7587 110.431 38.0095L112.708 34.6095C113.318 35.1213 113.996 35.5459 114.724 35.8712C115.455 36.1883 116.245 36.3479 117.042 36.3395C118.303 36.3395 119.231 36.0332 119.826 35.4206C120.123 35.109 120.355 34.7409 120.508 34.3382C120.661 33.9354 120.732 33.5061 120.717 33.0755V31.7883H120.661C120.217 32.4044 119.602 32.8765 118.892 33.146C118.258 33.3974 117.584 33.532 116.902 33.5435C115.981 33.5563 115.067 33.3839 114.214 33.0363C113.43 32.7127 112.724 32.2265 112.143 31.61C111.556 30.9806 111.104 30.2388 110.812 29.4295C110.493 28.5409 110.334 27.6023 110.344 26.658C110.344 25.7807 110.488 24.9094 110.77 24.0786C111.035 23.2719 111.443 22.5197 111.975 21.8583C112.498 21.2169 113.147 20.6895 113.882 20.3086C114.671 19.906 115.547 19.7034 116.432 19.7186C117.443 19.707 118.441 19.9424 119.34 20.4043C119.696 20.5861 120.028 20.8117 120.328 21.076C120.576 21.2907 120.798 21.5331 120.99 21.7986H121.045V20.0429H124.83L124.83 32.2486ZM114.462 26.6263C114.461 27.052 114.544 27.4738 114.707 27.8671C114.869 28.2605 115.109 28.6176 115.41 28.9177C115.712 29.2196 116.065 29.4657 116.453 29.6446C116.861 29.8254 117.303 29.9189 117.749 29.9189C118.196 29.9189 118.637 29.8254 119.045 29.6446C119.437 29.4679 119.794 29.2216 120.099 28.9177C120.4 28.617 120.639 28.26 120.801 27.867C120.964 27.474 121.048 27.0527 121.048 26.6273C121.048 26.2019 120.964 25.7807 120.801 25.3877C120.639 24.9947 120.4 24.6376 120.099 24.3369C119.793 24.0327 119.435 23.7864 119.042 23.61C118.634 23.4299 118.193 23.3369 117.747 23.3369C117.301 23.3369 116.86 23.4299 116.452 23.61C116.064 23.7887 115.711 24.0344 115.41 24.3357C115.108 24.6359 114.869 24.9929 114.707 25.3861C114.545 25.7792 114.462 26.2007 114.464 26.626L114.462 26.6263ZM128.122 20.0432H132.07V21.8535H132.125C132.271 21.5728 132.456 21.3144 132.674 21.0857C132.924 20.8193 133.21 20.5886 133.524 20.4C133.876 20.1887 134.254 20.0229 134.648 19.9066C135.093 19.7751 135.555 19.7104 136.02 19.7146C136.886 19.6793 137.75 19.8435 138.543 20.1946C139.156 20.49 139.673 20.9508 140.038 21.5249C140.411 22.1372 140.659 22.818 140.765 23.5272C140.898 24.3528 140.962 25.1879 140.957 26.024V33.3735H136.845V26.8455C136.845 26.4615 136.831 26.0637 136.804 25.6523C136.781 25.2623 136.698 24.8782 136.557 24.5137C136.428 24.178 136.21 23.884 135.926 23.6637C135.567 23.4222 135.138 23.3063 134.706 23.3343C134.259 23.3153 133.814 23.4147 133.418 23.6226C133.099 23.8034 132.837 24.0699 132.662 24.392C132.482 24.7293 132.366 25.0965 132.319 25.4755C132.263 25.8937 132.235 26.3152 132.236 26.7372V33.3735H128.122V20.0432ZM152.234 31.7003H152.179C151.748 32.3916 151.109 32.9291 150.355 33.2363C149.593 33.5484 148.778 33.7075 147.955 33.7046C147.347 33.7063 146.742 33.6185 146.16 33.444C145.608 33.2828 145.092 33.018 144.638 32.6637C144.2 32.3171 143.844 31.8774 143.596 31.3763C143.33 30.8203 143.199 30.2096 143.212 29.5935C143.191 28.9191 143.337 28.2499 143.637 27.6457C143.913 27.1233 144.308 26.6724 144.789 26.3289C145.295 25.9711 145.855 25.6978 146.448 25.5197C147.079 25.3245 147.724 25.1812 148.378 25.0912C149.042 25 149.711 24.9451 150.381 24.9266C151.047 24.9076 151.664 24.898 152.232 24.898C152.246 24.5669 152.182 24.2372 152.047 23.9347C151.911 23.6323 151.708 23.3654 151.452 23.1552C150.931 22.7258 150.275 22.4971 149.6 22.5106C148.958 22.5028 148.324 22.6485 147.749 22.9357C147.181 23.2264 146.674 23.6218 146.253 24.1012L144.059 21.852C144.833 21.1358 145.749 20.5897 146.747 20.2489C147.77 19.8925 148.845 19.7117 149.928 19.714C150.94 19.6827 151.948 19.8361 152.904 20.1666C153.634 20.4344 154.279 20.8939 154.77 21.4969C155.258 22.1288 155.592 22.8661 155.745 23.65C155.939 24.6207 156.031 25.6091 156.018 26.5989V33.3735H152.232L152.234 31.7003ZM151.219 27.5312C150.907 27.5312 150.518 27.5448 150.053 27.572C149.598 27.598 149.147 27.6765 148.71 27.806C148.308 27.9193 147.935 28.1155 147.613 28.382C147.462 28.5143 147.342 28.6794 147.264 28.8647C147.185 29.0501 147.15 29.2508 147.161 29.4517C147.15 29.6757 147.204 29.8979 147.316 30.0923C147.428 30.2867 147.593 30.4451 147.792 30.5489C148.192 30.7811 148.646 30.9041 149.108 30.9055C149.503 30.9066 149.895 30.8512 150.274 30.7409C150.63 30.6391 150.968 30.481 151.274 30.2726C151.564 30.0746 151.803 29.8118 151.974 29.5049C152.154 29.1678 152.243 28.7898 152.234 28.4077V27.5312H151.219ZM158.652 12.6372H162.766V33.3735H158.651L158.652 12.6372Z" fill="#14161A"/>
<path d="M18.0377 13.9117C20.5917 13.9116 23.1207 14.4146 25.4803 15.3919C27.84 16.3692 29.984 17.8017 31.79 19.6076C33.596 21.4136 35.0286 23.5575 36.006 25.9171C36.9834 28.2767 37.4865 30.8057 37.4865 33.3597H18.0377V13.9117Z" fill="#8821F4"/>
<path d="M9.23388 21.4535H15.1722V33.3597H9.23388V21.4535Z" fill="#8821F4"/>
<path d="M12.2029 13.7223C12.7901 13.7223 13.3642 13.8965 13.8524 14.2227C14.3407 14.549 14.7213 15.0127 14.946 15.5552C15.1707 16.0978 15.2295 16.6948 15.115 17.2707C15.0004 17.8467 14.7176 18.3757 14.3024 18.791C13.8871 19.2062 13.3581 19.489 12.7821 19.6036C12.2062 19.7181 11.6092 19.6593 11.0666 19.4346C10.5241 19.2099 10.0604 18.8293 9.73411 18.341C9.40786 17.8528 9.23372 17.2787 9.23372 16.6915C9.23372 15.904 9.54654 15.1488 10.1034 14.592C10.6602 14.0351 11.4154 13.7223 12.2029 13.7223Z" fill="#8821F4"/>
</svg>
