<svg width="42" height="29" viewBox="0 0 42 29" fill="none" xmlns="http://www.w3.org/2000/svg">
<g id="Vector">
<path d="M13.0007 0.279157C16.7724 0.27894 20.5072 1.02166 23.9919 2.4649C27.4766 3.90813 30.6428 6.02363 33.3099 8.69059C35.9769 11.3575 38.0926 14.5237 39.5359 18.0083C40.9793 21.4929 41.7222 25.2277 41.7221 28.9995H13.0007V0.279157Z" fill="#FAFAFA"/>
<path d="M0 11.4173H8.77233V29H0V11.4173Z" fill="#FAFAFA"/>
<path d="M4.38506 0C5.25237 6.86479e-09 6.1002 0.257193 6.82133 0.739055C7.54247 1.22092 8.10451 1.9058 8.43639 2.7071C8.76827 3.5084 8.85507 4.39012 8.68583 5.24075C8.51659 6.09138 8.0989 6.87273 7.48558 7.48597C6.87226 8.09921 6.09087 8.5168 5.24021 8.68594C4.38955 8.85507 3.50785 8.76816 2.70659 8.43618C1.90533 8.1042 1.22052 7.54207 0.738748 6.82087C0.256978 6.09968 -0.000109088 5.25182 3.47245e-08 4.38451C0.000146348 3.22162 0.462207 2.1064 1.28455 1.28416C2.10689 0.461921 3.22217 -9.20439e-09 4.38506 0Z" fill="#FAFAFA"/>
</g>
</svg>
