<svg width="20" height="20" viewBox="0 0 20 20" fill="none" xmlns="http://www.w3.org/2000/svg">
<g id="Vector">
<path d="M14.2195 20H5.78047C2.59278 20 0 17.4067 0 14.2195V5.78047C0 2.59329 2.59329 0 5.78047 0H14.2195C17.4072 0 20 2.59329 20 5.78047V14.2195C20 17.4072 17.4067 20 14.2195 20ZM5.78047 2.01205C3.7026 2.01205 2.01205 3.7026 2.01205 5.78047V14.2195C2.01205 16.2974 3.7026 17.988 5.78047 17.988H14.2195C16.2974 17.988 17.988 16.2974 17.988 14.2195V5.78047C17.988 3.7026 16.2974 2.01205 14.2195 2.01205H5.78047Z" fill="#FAFAFA"/>
<path d="M10 15.062C7.20875 15.062 4.93798 12.7913 4.93798 10C4.93798 7.20875 7.20875 4.93798 10 4.93798C12.7913 4.93798 15.062 7.20875 15.062 10C15.062 12.7913 12.7913 15.062 10 15.062ZM10 6.61941C8.13579 6.61941 6.61941 8.13579 6.61941 10C6.61941 11.8642 8.13579 13.3806 10 13.3806C11.8642 13.3806 13.3806 11.8642 13.3806 10C13.3806 8.13579 11.8642 6.61941 10 6.61941Z" fill="#FAFAFA"/>
<path d="M16.3363 4.80369C16.4006 4.15534 15.9271 3.57766 15.2787 3.5134C14.6304 3.44915 14.0527 3.92265 13.9884 4.57099C13.9242 5.21934 14.3977 5.79702 15.046 5.86128C15.6944 5.92553 16.272 5.45203 16.3363 4.80369Z" fill="#FAFAFA"/>
</g>
</svg>
