<svg width="24" height="24" viewBox="0 0 24 24" fill="none" xmlns="http://www.w3.org/2000/svg">
<path d="M18.3601 18.16H6.5601L4.8801 3H2.3501M5.2501 6.37L20.8901 8.06L20.1401 14.8H6.1901M7.4301 19.59C7.4301 20.3687 6.79882 21 6.0201 21C5.24138 21 4.6101 20.3687 4.6101 19.59C4.6101 18.8113 5.24138 18.18 6.0201 18.18C6.79882 18.18 7.4301 18.8113 7.4301 19.59ZM19.6701 19.59C19.6701 20.3687 19.0388 21 18.2601 21C17.4814 21 16.8501 20.3687 16.8501 19.59C16.8501 18.8113 17.4814 18.18 18.2601 18.18C19.0388 18.18 19.6701 18.8113 19.6701 19.59Z" stroke="#202020" stroke-width="1.5" stroke-linejoin="round"/>
</svg>
