<svg width="21" height="20" viewBox="0 0 21 20" fill="none" xmlns="http://www.w3.org/2000/svg">
<path id="Vector" d="M14.8153 20C14.6373 20 14.4672 19.9147 14.3608 19.7713L8.88379 12.4176L2.08101 19.8166C1.97399 19.9334 1.82187 20 1.66373 20H0.430526C0.283215 20 0.154543 19.9153 0.0956188 19.7791C0.0366943 19.643 0.0619477 19.4905 0.16236 19.3815L7.84599 11.0239L0.0733718 0.588805C-0.0102048 0.476248 -0.0234327 0.328593 0.0390994 0.203328C0.101632 0.0780635 0.226696 0 0.36619 0H6.18529C6.36326 0 6.53342 0.0853253 6.63984 0.228744L11.6737 6.98699L17.9287 0.183359C18.0357 0.0665658 18.1878 0 18.346 0H19.5792C19.7265 0 19.8552 0.0847201 19.9141 0.220877C19.973 0.357035 19.9478 0.508926 19.8473 0.618457L12.7109 8.38064L20.9266 19.4112C21.0102 19.5238 21.0234 19.6714 20.9609 19.7967C20.8984 19.9219 20.7733 20 20.6338 20H14.8153ZM17.8668 18.2384L5.59363 1.76097H3.13324L15.4058 18.2384H17.8668Z" fill="#FAFAFA"/>
</svg>
